<svg xmlns="http://www.w3.org/2000/svg" viewBox="0 0 512 66.56"><g id="b3e02568-2103-4c6e-9d85-10ef6a4f8a59" data-name="Layer 2"><g id="aa951500-4163-4dbd-8e8a-6b66b1094656" data-name="Layer 1"><path d="M221,43.3h33.84L237,14.52l-32.84,52H189.2L229.14,4.05A9.44,9.44,0,0,1,237,0a9.24,9.24,0,0,1,7.68,4l40.09,62.61H269.81l-7.05-11.63H228.51L221,43.3ZM376.25,54.93V.63H363.57V60.25a6.19,6.19,0,0,0,1.84,4.41,6.44,6.44,0,0,0,4.63,1.9h57.83l7.47-11.63ZM166.47,45.2a22.29,22.29,0,1,0,0-44.57H111V66.56h12.67V12.26h42a10.68,10.68,0,0,1,0,21.36l-35.75,0,37.85,33h18.42L160.68,45.2ZM33,66.56A33,33,0,1,1,33,.63H71.29a33,33,0,0,1,0,65.93ZM70.44,54.93a21.34,21.34,0,1,0,0-42.67H33.82a21.34,21.34,0,1,0,0,42.67ZM311.22,66.56a33,33,0,1,1,0-65.93h45.51l-7.42,11.63H312.06a21.34,21.34,0,1,0,0,42.67h45.72l-7.47,11.63ZM466.28,54.93a21.29,21.29,0,0,1-20.52-15.52H500l7.47-11.63H445.76a21.36,21.36,0,0,1,20.52-15.52h37.2L511,.63H465.44a33,33,0,1,0,0,65.93h39.09L512,54.93Z"/></g></g></svg>