<svg xmlns="http://www.w3.org/2000/svg" viewBox="0 0 210.1 143.1"><g id="f79d211c-f849-4093-a703-5e7efda140d9" data-name="Layer 2"><g id="e7d584b1-5e25-40eb-9d0d-4ffd44f4a395" data-name="Layer 1"><path d="M55.6,0h9.5a.9.9,0,0,1,.9.9V96.2a.9.9,0,0,1-.9.9H55.6a.9.9,0,0,1-.9-.9V.9A.9.9,0,0,1,55.6,0ZM121,78.4v2.4a20.69,20.69,0,0,1-.6,4.3,10.58,10.58,0,0,1-2.8,5.3,19.7,19.7,0,0,1-6.8,4.7A35.14,35.14,0,0,1,98.2,97a35.14,35.14,0,0,1-12.6-1.9,16.12,16.12,0,0,1-6.8-4.7A11.27,11.27,0,0,1,76,85a32,32,0,0,1-.6-4.2V26.5a.9.9,0,0,1,.9-.9h9.5a.9.9,0,0,1,.9.9V77.3a12,12,0,0,0,.5,3.8,5.85,5.85,0,0,0,1.4,2.7A7.63,7.63,0,0,0,91.9,86a15.54,15.54,0,0,0,5.9.9A17.3,17.3,0,0,0,104,86a7.93,7.93,0,0,0,3.4-2.1,6.27,6.27,0,0,0,1.6-2.7,13.51,13.51,0,0,0,.6-4.1V26.5a.9.9,0,0,1,.9-.9H120a.9.9,0,0,1,.9.9Zm32.4-52.7h6.4a.83.83,0,0,1,.8,1.1l-2.2,8.3a1,1,0,0,1-.8.7h-4.5a13.73,13.73,0,0,0-5.8,1,10,10,0,0,0-3.4,2.2,8.05,8.05,0,0,0-1.5,2.7,13.12,13.12,0,0,0-.3,2.7V96.3a.9.9,0,0,1-.9.9h-9.6a.9.9,0,0,1-.9-.9V42a20.79,20.79,0,0,1,.6-4.2,10.85,10.85,0,0,1,2.8-5.4,19.7,19.7,0,0,1,6.8-4.7c3-1.4,7.2-2,12.5-2Zm-130.8,0c7.7,0,13.5,1.5,17.1,4.6a14.54,14.54,0,0,1,5.4,11.5v39a17.24,17.24,0,0,1-.9,5.2,12.13,12.13,0,0,1-3.3,5.2,20.58,20.58,0,0,1-6.9,4,32.86,32.86,0,0,1-11.4,1.6,35.44,35.44,0,0,1-11.4-1.6,19,19,0,0,1-6.9-4A11,11,0,0,1,1,86a17,17,0,0,1-1-5.2V74.6a17.53,17.53,0,0,1,2.6-9.2,14.44,14.44,0,0,1,7.3-5.8c1.6-.6,3.3-1.1,5.4-1.8s4-1.3,5.9-2.1,3.5-1.2,5-1.7,2.3-.8,2.7-1,.8-.4,1.3-.7A9.62,9.62,0,0,0,31.9,51a6.66,6.66,0,0,0,1.3-2.1,6.09,6.09,0,0,0,.6-2.8V43.6a7,7,0,0,0-.6-2.7,7.19,7.19,0,0,0-1.8-2.6,9.67,9.67,0,0,0-3.5-1.9,16.71,16.71,0,0,0-5.5-.7c-4.4,0-7.3.9-9,2.7a9.67,9.67,0,0,0-2.3,5.7.82.82,0,0,1-.9.8H.9A.9.9,0,0,1,0,44V41.7a15.93,15.93,0,0,1,1.2-6.2,12.32,12.32,0,0,1,4.1-5.3,18.8,18.8,0,0,1,7.1-3.4A48.19,48.19,0,0,1,22.6,25.7ZM34,60.8a3.53,3.53,0,0,1-1.3,2,9.34,9.34,0,0,1-2,1c-1.3.5-2.8,1-4.3,1.5s-3,1.1-4.3,1.5c-1.6.6-3.2,1.1-4.5,1.6a19.23,19.23,0,0,0-3.1,1.8,12.27,12.27,0,0,0-2.2,2.7,7.92,7.92,0,0,0-1,4.2q0,5,2.4,7.5c1.6,1.6,4.6,2.5,8.9,2.5s7.4-.9,9.1-2.6,2.4-4.2,2.4-7.3ZM187.6,25.7c7.7,0,13.5,1.5,17.1,4.6a14.54,14.54,0,0,1,5.4,11.5v39a17.24,17.24,0,0,1-.9,5.2,12.13,12.13,0,0,1-3.3,5.2,21.27,21.27,0,0,1-6.9,4,32.86,32.86,0,0,1-11.4,1.6,35.44,35.44,0,0,1-11.4-1.6,19,19,0,0,1-6.9-4A11,11,0,0,1,166,86a17.76,17.76,0,0,1-.9-5.2V74.6a17.53,17.53,0,0,1,2.6-9.2,14,14,0,0,1,7.3-5.8c1.6-.6,3.3-1.1,5.4-1.8s4-1.3,5.9-2.1,3.5-1.2,5-1.7,2.3-.8,2.7-1,.8-.4,1.3-.7A9.62,9.62,0,0,0,197,51a6.66,6.66,0,0,0,1.3-2.1,6.09,6.09,0,0,0,.6-2.8V43.6a7,7,0,0,0-.6-2.7,7.19,7.19,0,0,0-1.8-2.6,10.59,10.59,0,0,0-3.5-1.9,16.71,16.71,0,0,0-5.5-.7c-4.4,0-7.3.9-9,2.7a9.67,9.67,0,0,0-2.3,5.7.82.82,0,0,1-.9.8h-9.6a.9.9,0,0,1-.9-.9V41.7a15.93,15.93,0,0,1,1.2-6.2,13.34,13.34,0,0,1,4.1-5.2,18.8,18.8,0,0,1,7.1-3.4,45.06,45.06,0,0,1,10.4-1.2Zm11.3,35.1a3.53,3.53,0,0,1-1.3,2,9.34,9.34,0,0,1-2,1c-1.3.5-2.8,1-4.3,1.5s-3,1.1-4.3,1.5c-1.6.6-3.2,1.1-4.5,1.6a19.23,19.23,0,0,0-3.1,1.8,12.27,12.27,0,0,0-2.2,2.7,7.69,7.69,0,0,0-1,4.2q0,5,2.4,7.5c1.6,1.6,4.6,2.5,8.9,2.5s7.4-.9,9.1-2.6,2.4-4.2,2.4-7.3l-.1-16.4ZM70,111.5a.9.9,0,0,1,.9-.9h5.5a.9.9,0,0,1,.9.9V136H88.2a.9.9,0,0,1,.9.9v5a.9.9,0,0,1-.9.9H70.9a.9.9,0,0,1-.9-.9Zm20.9,30.1,14.3-30.8a.89.89,0,0,1,.8-.5h.5a1,1,0,0,1,.8.5l14.3,30.8a.81.81,0,0,1-.8,1.2h-5.1a1.58,1.58,0,0,1-1.6-1.1l-1.6-3.6H100l-1.6,3.7a1.69,1.69,0,0,1-1.6,1.1h-5c-.9-.1-1.2-.7-.9-1.3Zm18.8-9.8-3.5-7.6-3.4,7.6Zm18.1-14.4h-6.6a.9.9,0,0,1-.9-.9v-5a.9.9,0,0,1,.9-.9h20.3a.9.9,0,0,1,.9.9v5a.9.9,0,0,1-.9.9H135v24.5a.9.9,0,0,1-.9.9h-5.5a.9.9,0,0,1-.9-.9V117.4Zm13.5,24.2,14.3-30.8a.89.89,0,0,1,.8-.5h.5a1,1,0,0,1,.8.5L172,141.6a.81.81,0,0,1-.8,1.2h-5.1a1.58,1.58,0,0,1-1.6-1.1l-1.6-3.6H150.4l-1.6,3.7a1.73,1.73,0,0,1-1.7,1.1h-5a.91.91,0,0,1-.8-1.3Zm18.8-9.8-3.5-7.6-3.4,7.6Zm18.8-20.9c0-.4.5-.7.8-.7h.7a1.2,1.2,0,0,1,.8.5l10.6,19.8h.1l10.6-19.8a1,1,0,0,1,.8-.5h.7a.77.77,0,0,1,.8.7l5.2,30.8a.83.83,0,0,1-.9,1h-5.4a1.11,1.11,0,0,1-.9-.7l-2.1-14.2h-.1l-7.7,14.8a.89.89,0,0,1-.8.5h-.8a1,1,0,0,1-.8-.5l-7.7-14.8h-.1l-2,14.2a.81.81,0,0,1-.9.7h-5.4a.83.83,0,0,1-.9-1l5.4-30.8Z"/></g></g></svg>